<svg xmlns="http://www.w3.org/2000/svg" xmlns:xlink="http://www.w3.org/1999/xlink" version="1.1" width="256" height="256" viewBox="0 0 256 256" xml:space="preserve">
<g style="stroke: none; stroke-width: 0; stroke-dasharray: none; stroke-linecap: butt; stroke-linejoin: miter; stroke-miterlimit: 10; fill: none; fill-rule: nonzero; opacity: 1;" transform="translate(1.4065934065934016 1.4065934065934016) scale(2.81 2.81)">
	<path d="M 45 74.738 C 39.111 62.48 28.28 56.567 10.838 54.725 L 27.191 41.07 C 33.05 42.193 41.806 44.602 45 49.075 V 74.738 z" style="stroke: none; stroke-width: 1; stroke-dasharray: none; stroke-linecap: butt; stroke-linejoin: miter; stroke-miterlimit: 10; fill: rgb(114,209,251); fill-rule: nonzero; opacity: 1;" transform=" matrix(1 0 0 1 0 0) " stroke-linecap="round"/>
	<path d="M 10.838 54.725 l -1.823 8.08 c 12.917 0.672 22.983 4.276 29.69 12.008 L 45 74.738 C 39.111 62.48 28.28 56.567 10.838 54.725 z" style="stroke: none; stroke-width: 1; stroke-dasharray: none; stroke-linecap: butt; stroke-linejoin: miter; stroke-miterlimit: 10; fill: rgb(64,193,250); fill-rule: nonzero; opacity: 1;" transform=" matrix(1 0 0 1 0 0) " stroke-linecap="round"/>
	<rect x="1" y="74.74" rx="0" ry="0" width="44" height="6.32" style="stroke: none; stroke-width: 1; stroke-dasharray: none; stroke-linecap: butt; stroke-linejoin: miter; stroke-miterlimit: 10; fill: rgb(6,126,179); fill-rule: nonzero; opacity: 1;" transform=" matrix(1 0 0 1 0 0) "/>
	<path d="M 12.094 63.031 L 1 74.738 h 37.633 C 32.451 67.676 23.796 64.084 12.094 63.031 z" style="stroke: none; stroke-width: 1; stroke-dasharray: none; stroke-linecap: butt; stroke-linejoin: miter; stroke-miterlimit: 10; fill: rgb(6,145,206); fill-rule: nonzero; opacity: 1;" transform=" matrix(1 0 0 1 0 0) " stroke-linecap="round"/>
	<path d="M 45 75.738 c -0.377 0 -0.732 -0.215 -0.901 -0.567 C 38.523 63.565 28.232 57.567 10.732 55.72 c -0.399 -0.042 -0.735 -0.319 -0.852 -0.703 c -0.117 -0.384 0.007 -0.801 0.315 -1.059 l 16.353 -13.656 c 0.23 -0.192 0.531 -0.273 0.83 -0.214 c 6.571 1.26 15.104 3.741 18.435 8.406 C 45.935 48.664 46 48.867 46 49.075 v 25.663 c 0 0.467 -0.323 0.871 -0.778 0.975 C 45.148 75.73 45.073 75.738 45 75.738 z M 13.261 54.005 C 28.385 55.987 38.08 61.27 44 70.825 V 49.407 c -3.163 -4.056 -11.484 -6.263 -16.534 -7.265 L 13.261 54.005 z" style="stroke: none; stroke-width: 1; stroke-dasharray: none; stroke-linecap: butt; stroke-linejoin: miter; stroke-miterlimit: 10; fill: rgb(0,0,0); fill-rule: nonzero; opacity: 1;" transform=" matrix(1 0 0 1 0 0) " stroke-linecap="round"/>
	<path d="M 45 82.059 H 1 c -0.552 0 -1 -0.447 -1 -1 v -6.32 c 0 -0.553 0.448 -1 1 -1 h 44 c 0.552 0 1 0.447 1 1 v 6.32 C 46 81.611 45.552 82.059 45 82.059 z M 2 80.059 h 42 v -4.32 H 2 V 80.059 z" style="stroke: none; stroke-width: 1; stroke-dasharray: none; stroke-linecap: butt; stroke-linejoin: miter; stroke-miterlimit: 10; fill: rgb(0,0,0); fill-rule: nonzero; opacity: 1;" transform=" matrix(1 0 0 1 0 0) " stroke-linecap="round"/>
	<path d="M 38.633 75.738 H 1 c -0.399 0 -0.761 -0.238 -0.918 -0.604 C -0.077 74.767 0 74.341 0.274 74.051 l 11.095 -11.707 c 0.211 -0.222 0.508 -0.336 0.816 -0.309 c 12.336 1.11 20.979 4.938 27.201 12.045 c 0.258 0.295 0.32 0.714 0.158 1.071 S 39.025 75.738 38.633 75.738 z M 3.325 73.738 h 32.991 c -5.651 -5.556 -13.3 -8.648 -23.83 -9.666 L 3.325 73.738 z" style="stroke: none; stroke-width: 1; stroke-dasharray: none; stroke-linecap: butt; stroke-linejoin: miter; stroke-miterlimit: 10; fill: rgb(0,0,0); fill-rule: nonzero; opacity: 1;" transform=" matrix(1 0 0 1 0 0) " stroke-linecap="round"/>
	<path d="M 45 74.738 c 5.889 -12.258 16.72 -18.171 34.162 -20.012 L 62.809 41.07 C 56.95 42.193 48.194 44.602 45 49.075 V 74.738 z" style="stroke: none; stroke-width: 1; stroke-dasharray: none; stroke-linecap: butt; stroke-linejoin: miter; stroke-miterlimit: 10; fill: rgb(114,209,251); fill-rule: nonzero; opacity: 1;" transform=" matrix(1 0 0 1 0 0) " stroke-linecap="round"/>
	<path d="M 79.162 54.725 l 1.823 8.08 c -12.917 0.672 -22.983 4.276 -29.69 12.008 L 45 74.738 C 50.889 62.48 61.72 56.567 79.162 54.725 z" style="stroke: none; stroke-width: 1; stroke-dasharray: none; stroke-linecap: butt; stroke-linejoin: miter; stroke-miterlimit: 10; fill: rgb(64,193,250); fill-rule: nonzero; opacity: 1;" transform=" matrix(1 0 0 1 0 0) " stroke-linecap="round"/>
	<rect x="45" y="74.74" rx="0" ry="0" width="44" height="6.32" style="stroke: none; stroke-width: 1; stroke-dasharray: none; stroke-linecap: butt; stroke-linejoin: miter; stroke-miterlimit: 10; fill: rgb(6,126,179); fill-rule: nonzero; opacity: 1;" transform=" matrix(-1 -1.224647e-16 1.224647e-16 -1 134 155.7962) "/>
	<path d="M 77.906 63.031 L 89 74.738 H 51.367 C 57.549 67.676 66.204 64.084 77.906 63.031 z" style="stroke: none; stroke-width: 1; stroke-dasharray: none; stroke-linecap: butt; stroke-linejoin: miter; stroke-miterlimit: 10; fill: rgb(6,145,206); fill-rule: nonzero; opacity: 1;" transform=" matrix(1 0 0 1 0 0) " stroke-linecap="round"/>
	<path d="M 45 75.738 c -0.074 0 -0.148 -0.008 -0.223 -0.025 C 44.323 75.609 44 75.205 44 74.738 V 49.075 c 0 -0.208 0.065 -0.411 0.186 -0.581 c 3.332 -4.665 11.864 -7.146 18.435 -8.406 c 0.297 -0.057 0.601 0.023 0.829 0.214 l 16.353 13.656 c 0.309 0.258 0.433 0.675 0.316 1.059 c -0.117 0.384 -0.453 0.661 -0.853 0.703 c -17.499 1.847 -27.789 7.846 -33.365 19.451 C 45.732 75.523 45.378 75.738 45 75.738 z M 46 49.407 v 21.418 c 5.921 -9.556 15.615 -14.838 30.739 -16.82 L 62.534 42.143 C 57.484 43.145 49.163 45.351 46 49.407 z" style="stroke: none; stroke-width: 1; stroke-dasharray: none; stroke-linecap: butt; stroke-linejoin: miter; stroke-miterlimit: 10; fill: rgb(0,0,0); fill-rule: nonzero; opacity: 1;" transform=" matrix(1 0 0 1 0 0) " stroke-linecap="round"/>
	<path d="M 89 82.059 H 45 c -0.552 0 -1 -0.447 -1 -1 v -6.32 c 0 -0.553 0.448 -1 1 -1 h 44 c 0.553 0 1 0.447 1 1 v 6.32 C 90 81.611 89.553 82.059 89 82.059 z M 46 80.059 h 42 v -4.32 H 46 V 80.059 z" style="stroke: none; stroke-width: 1; stroke-dasharray: none; stroke-linecap: butt; stroke-linejoin: miter; stroke-miterlimit: 10; fill: rgb(0,0,0); fill-rule: nonzero; opacity: 1;" transform=" matrix(1 0 0 1 0 0) " stroke-linecap="round"/>
	<path d="M 89 75.738 H 51.367 c -0.393 0 -0.749 -0.229 -0.911 -0.587 s -0.1 -0.776 0.158 -1.071 c 6.222 -7.107 14.864 -10.935 27.201 -12.045 c 0.316 -0.028 0.605 0.087 0.815 0.309 l 11.095 11.707 c 0.275 0.29 0.351 0.716 0.193 1.083 C 89.761 75.5 89.399 75.738 89 75.738 z M 53.684 73.738 h 32.991 l -9.161 -9.666 C 66.984 65.09 59.335 68.183 53.684 73.738 z" style="stroke: none; stroke-width: 1; stroke-dasharray: none; stroke-linecap: butt; stroke-linejoin: miter; stroke-miterlimit: 10; fill: rgb(0,0,0); fill-rule: nonzero; opacity: 1;" transform=" matrix(1 0 0 1 0 0) " stroke-linecap="round"/>
	<path d="M 51.367 75.738 H 45 c -0.344 0 -0.664 -0.177 -0.847 -0.468 c -0.183 -0.291 -0.204 -0.655 -0.055 -0.965 c 5.909 -12.302 16.691 -18.646 34.959 -20.574 c 0.496 -0.053 0.969 0.279 1.08 0.774 l 1.823 8.08 c 0.064 0.287 -0.001 0.589 -0.179 0.823 c -0.178 0.235 -0.45 0.38 -0.745 0.396 c -13.232 0.688 -22.692 4.48 -28.918 11.592 C 51.93 75.614 51.655 75.738 51.367 75.738 z M 46.629 73.738 h 4.289 c 6.406 -7.105 15.853 -10.992 28.833 -11.861 l -1.367 -6.06 C 62.145 57.688 52.253 63.258 46.629 73.738 z" style="stroke: none; stroke-width: 1; stroke-dasharray: none; stroke-linecap: butt; stroke-linejoin: miter; stroke-miterlimit: 10; fill: rgb(0,0,0); fill-rule: nonzero; opacity: 1;" transform=" matrix(1 0 0 1 0 0) " stroke-linecap="round"/>
	<path d="M 45 75.738 h -6.367 c -0.288 0 -0.563 -0.124 -0.752 -0.342 c -6.225 -7.111 -15.684 -10.903 -28.917 -11.592 c -0.294 -0.016 -0.567 -0.16 -0.745 -0.396 c -0.178 -0.234 -0.244 -0.536 -0.179 -0.823 l 1.823 -8.08 c 0.112 -0.495 0.579 -0.827 1.081 -0.774 c 18.267 1.928 29.049 8.272 34.959 20.574 c 0.148 0.31 0.128 0.674 -0.055 0.965 C 45.664 75.562 45.344 75.738 45 75.738 z M 39.082 73.738 h 4.289 c -5.624 -10.48 -15.516 -16.05 -31.754 -17.921 l -1.367 6.06 C 23.23 62.746 32.676 66.633 39.082 73.738 z" style="stroke: none; stroke-width: 1; stroke-dasharray: none; stroke-linecap: butt; stroke-linejoin: miter; stroke-miterlimit: 10; fill: rgb(0,0,0); fill-rule: nonzero; opacity: 1;" transform=" matrix(1 0 0 1 0 0) " stroke-linecap="round"/>
	<path d="M 58.36 32.159 c 0 -7.879 -6.821 -14.166 -14.881 -13.276 c -6.209 0.686 -10.983 5.401 -11.737 11.602 c -0.521 4.29 0.993 8.24 3.706 11.014 c 1.372 1.403 2.059 3.339 2.059 5.301 l 0 3.154 c 0 4.138 3.354 7.492 7.492 7.492 h 0 c 4.138 0 7.492 -3.354 7.492 -7.492 v -3.562 c 0 -1.861 0.802 -3.598 2.098 -4.933 C 56.923 39.055 58.36 35.775 58.36 32.159 z" style="stroke: none; stroke-width: 1; stroke-dasharray: none; stroke-linecap: butt; stroke-linejoin: miter; stroke-miterlimit: 10; fill: rgb(242,191,34); fill-rule: nonzero; opacity: 1;" transform=" matrix(1 0 0 1 0 0) " stroke-linecap="round"/>
	<path d="M 37.505 46.736 c 0 0.022 0.003 0.043 0.003 0.065 v 3.154 c 0 4.138 3.354 7.492 7.492 7.492 s 7.492 -3.354 7.492 -7.492 v -3.219 H 37.505 z" style="stroke: none; stroke-width: 1; stroke-dasharray: none; stroke-linecap: butt; stroke-linejoin: miter; stroke-miterlimit: 10; fill: rgb(130,124,147); fill-rule: nonzero; opacity: 1;" transform=" matrix(1 0 0 1 0 0) " stroke-linecap="round"/>
	<path d="M 45 58.447 c -4.683 0 -8.492 -3.81 -8.492 -8.492 v -3.154 c 0 -1.771 -0.647 -3.449 -1.774 -4.602 c -3.065 -3.134 -4.517 -7.447 -3.984 -11.834 c 0.804 -6.613 5.993 -11.743 12.62 -12.475 c 4.148 -0.457 8.127 0.81 11.208 3.57 c 3.039 2.722 4.782 6.622 4.782 10.7 c 0 3.754 -1.438 7.304 -4.051 9.997 c -1.171 1.208 -1.816 2.712 -1.816 4.238 v 3.562 C 53.492 54.638 49.683 58.447 45 58.447 z M 45.017 19.799 c -0.473 0 -0.949 0.026 -1.428 0.079 c -5.79 0.639 -10.152 4.951 -10.854 10.728 c -0.459 3.781 0.79 7.497 3.428 10.194 c 1.512 1.546 2.345 3.677 2.345 6 v 3.154 c 0 3.58 2.913 6.492 6.492 6.492 c 3.58 0 6.492 -2.912 6.492 -6.492 v -3.562 c 0 -2.048 0.846 -4.047 2.381 -5.63 c 2.248 -2.317 3.486 -5.373 3.486 -8.604 c 0 -3.51 -1.501 -6.867 -4.117 -9.21 C 50.946 20.893 48.067 19.799 45.017 19.799 z" style="stroke: none; stroke-width: 1; stroke-dasharray: none; stroke-linecap: butt; stroke-linejoin: miter; stroke-miterlimit: 10; fill: rgb(0,0,0); fill-rule: nonzero; opacity: 1;" transform=" matrix(1 0 0 1 0 0) " stroke-linecap="round"/>
	<path d="M 51.604 33.849 c -0.553 0 -1 -0.448 -1 -1 c 0 -1.902 -0.813 -3.722 -2.231 -4.992 c -1.438 -1.288 -3.294 -1.88 -5.235 -1.665 c -0.54 0.055 -1.043 -0.335 -1.104 -0.884 c -0.061 -0.549 0.335 -1.043 0.884 -1.104 c 2.473 -0.276 4.948 0.515 6.789 2.163 c 1.842 1.649 2.897 4.012 2.897 6.482 C 52.604 33.401 52.157 33.849 51.604 33.849 z" style="stroke: none; stroke-width: 1; stroke-dasharray: none; stroke-linecap: butt; stroke-linejoin: miter; stroke-miterlimit: 10; fill: rgb(0,0,0); fill-rule: nonzero; opacity: 1;" transform=" matrix(1 0 0 1 0 0) " stroke-linecap="round"/>
	<path d="M 45 58.447 c -4.683 0 -8.492 -3.81 -8.492 -8.492 v -3.154 c 0 -0.553 0.445 -1.064 0.997 -1.064 h 14.987 c 0.553 0 1 0.447 1 1 v 3.219 C 53.492 54.638 49.683 58.447 45 58.447 z M 38.508 47.736 v 2.219 c 0 3.58 2.913 6.492 6.492 6.492 c 3.58 0 6.492 -2.912 6.492 -6.492 v -2.219 H 38.508 z" style="stroke: none; stroke-width: 1; stroke-dasharray: none; stroke-linecap: butt; stroke-linejoin: miter; stroke-miterlimit: 10; fill: rgb(0,0,0); fill-rule: nonzero; opacity: 1;" transform=" matrix(1 0 0 1 0 0) " stroke-linecap="round"/>
	<path d="M 26.15 31.611 h -2.82 c -0.552 0 -1 -0.448 -1 -1 s 0.448 -1 1 -1 h 2.82 c 0.552 0 1 0.448 1 1 S 26.702 31.611 26.15 31.611 z" style="stroke: none; stroke-width: 1; stroke-dasharray: none; stroke-linecap: butt; stroke-linejoin: miter; stroke-miterlimit: 10; fill: rgb(0,0,0); fill-rule: nonzero; opacity: 1;" transform=" matrix(1 0 0 1 0 0) " stroke-linecap="round"/>
	<path d="M 66.67 31.611 h -2.82 c -0.553 0 -1 -0.448 -1 -1 s 0.447 -1 1 -1 h 2.82 c 0.553 0 1 0.448 1 1 S 67.223 31.611 66.67 31.611 z" style="stroke: none; stroke-width: 1; stroke-dasharray: none; stroke-linecap: butt; stroke-linejoin: miter; stroke-miterlimit: 10; fill: rgb(0,0,0); fill-rule: nonzero; opacity: 1;" transform=" matrix(1 0 0 1 0 0) " stroke-linecap="round"/>
	<path d="M 45 12.761 c -0.552 0 -1 -0.448 -1 -1 v -2.82 c 0 -0.552 0.448 -1 1 -1 s 1 0.448 1 1 v 2.82 C 46 12.313 45.552 12.761 45 12.761 z" style="stroke: none; stroke-width: 1; stroke-dasharray: none; stroke-linecap: butt; stroke-linejoin: miter; stroke-miterlimit: 10; fill: rgb(0,0,0); fill-rule: nonzero; opacity: 1;" transform=" matrix(1 0 0 1 0 0) " stroke-linecap="round"/>
	<path d="M 31.671 18.282 c -0.256 0 -0.512 -0.098 -0.707 -0.293 l -1.994 -1.994 c -0.391 -0.391 -0.391 -1.023 0 -1.414 s 1.023 -0.391 1.414 0 l 1.994 1.994 c 0.391 0.391 0.391 1.023 0 1.414 C 32.183 18.185 31.927 18.282 31.671 18.282 z" style="stroke: none; stroke-width: 1; stroke-dasharray: none; stroke-linecap: butt; stroke-linejoin: miter; stroke-miterlimit: 10; fill: rgb(0,0,0); fill-rule: nonzero; opacity: 1;" transform=" matrix(1 0 0 1 0 0) " stroke-linecap="round"/>
	<path d="M 58.329 18.282 c -0.256 0 -0.512 -0.098 -0.707 -0.293 c -0.391 -0.391 -0.391 -1.024 0 -1.414 l 1.994 -1.994 c 0.391 -0.391 1.023 -0.391 1.414 0 s 0.391 1.024 0 1.414 l -1.994 1.994 C 58.841 18.185 58.585 18.282 58.329 18.282 z" style="stroke: none; stroke-width: 1; stroke-dasharray: none; stroke-linecap: butt; stroke-linejoin: miter; stroke-miterlimit: 10; fill: rgb(0,0,0); fill-rule: nonzero; opacity: 1;" transform=" matrix(1 0 0 1 0 0) " stroke-linecap="round"/>
</g>
</svg>